<svg width="82" height="78" viewBox="0 0 82 78" fill="none" xmlns="http://www.w3.org/2000/svg">
<rect x="0.347656" y="0.5" width="81" height="77" rx="38.5" fill="url(#paint0_linear_173_755)"/>
<mask id="path-2-inside-1_173_755" fill="white">
<path d="M41.5352 41.125C53.7886 41.125 63.7227 45.7607 63.7227 51.4792V58.875H19.3477V51.4792C19.3477 45.7607 29.2817 41.125 41.5352 41.125ZM60.7643 51.4792C60.7643 47.3967 52.1556 44.0833 41.5352 44.0833C30.9147 44.0833 22.306 47.3967 22.306 51.4792V55.9167H60.7643V51.4792ZM41.5352 14.5C44.2813 14.5 46.9149 15.5909 48.8567 17.5327C50.7984 19.4744 51.8893 22.1081 51.8893 24.8542C51.8893 27.6003 50.7984 30.2339 48.8567 32.1757C46.9149 34.1175 44.2813 35.2083 41.5352 35.2083C38.7891 35.2083 36.1554 34.1175 34.2137 32.1757C32.2719 30.2339 31.181 27.6003 31.181 24.8542C31.181 22.1081 32.2719 19.4744 34.2137 17.5327C36.1554 15.5909 38.7891 14.5 41.5352 14.5ZM41.5352 17.4583C39.5737 17.4583 37.6925 18.2375 36.3055 19.6245C34.9185 21.0115 34.1393 22.8927 34.1393 24.8542C34.1393 26.8157 34.9185 28.6968 36.3055 30.0838C37.6925 31.4708 39.5737 32.25 41.5352 32.25C43.4967 32.25 45.3778 31.4708 46.7648 30.0838C48.1518 28.6968 48.931 26.8157 48.931 24.8542C48.931 22.8927 48.1518 21.0115 46.7648 19.6245C45.3778 18.2375 43.4967 17.4583 41.5352 17.4583Z"/>
</mask>
<path d="M63.7227 58.875V67.875H72.7227V58.875H63.7227ZM19.3477 58.875H10.3477V67.875H19.3477V58.875ZM22.306 55.9167H13.306V64.9167H22.306V55.9167ZM60.7643 55.9167V64.9167H69.7643V55.9167H60.7643ZM41.5352 14.5V5.5V14.5ZM51.8893 24.8542H60.8893H51.8893ZM31.181 24.8542H22.181H31.181ZM41.5352 50.125C46.65 50.125 50.8417 51.1111 53.418 52.3133C54.7115 52.9169 55.2276 53.4015 55.3105 53.493C55.345 53.531 54.7227 52.8297 54.7227 51.4792H72.7227C72.7227 43.0461 65.7531 38.2061 61.0299 36.002C55.5758 33.4568 48.6738 32.125 41.5352 32.125V50.125ZM54.7227 51.4792V58.875H72.7227V51.4792H54.7227ZM63.7227 49.875H19.3477V67.875H63.7227V49.875ZM28.3477 58.875V51.4792H10.3477V58.875H28.3477ZM28.3477 51.4792C28.3477 52.8297 27.7254 53.531 27.7598 53.493C27.8427 53.4015 28.3588 52.9169 29.6523 52.3133C32.2286 51.1111 36.4203 50.125 41.5352 50.125V32.125C34.3966 32.125 27.4946 33.4568 22.0404 36.002C17.3173 38.2061 10.3477 43.0461 10.3477 51.4792H28.3477ZM69.7643 51.4792C69.7643 47.0494 67.3947 43.8398 65.3079 41.9424C63.2232 40.0468 60.7085 38.7524 58.3638 37.8504C53.6143 36.0233 47.6619 35.0833 41.5352 35.0833V53.0833C46.0289 53.0833 49.6911 53.8 51.901 54.6502C53.036 55.0868 53.3372 55.3862 53.1986 55.2602C53.0578 55.1322 51.7643 53.8677 51.7643 51.4792H69.7643ZM41.5352 35.0833C35.4084 35.0833 29.4561 36.0233 24.7065 37.8504C22.3618 38.7524 19.8471 40.0468 17.7624 41.9424C15.6756 43.8398 13.306 47.0494 13.306 51.4792H31.306C31.306 53.8677 30.0125 55.1322 29.8717 55.2602C29.7331 55.3862 30.0343 55.0868 31.1693 54.6502C33.3793 53.8 37.0415 53.0833 41.5352 53.0833V35.0833ZM13.306 51.4792V55.9167H31.306V51.4792H13.306ZM22.306 64.9167H60.7643V46.9167H22.306V64.9167ZM69.7643 55.9167V51.4792H51.7643V55.9167H69.7643ZM41.5352 23.5C41.8943 23.5 42.2387 23.6427 42.4927 23.8966L55.2206 11.1687C51.591 7.5391 46.6682 5.5 41.5352 5.5V23.5ZM42.4927 23.8966C42.7467 24.1506 42.8893 24.495 42.8893 24.8542H60.8893C60.8893 19.7211 58.8502 14.7983 55.2206 11.1687L42.4927 23.8966ZM42.8893 24.8542C42.8893 25.2133 42.7467 25.5577 42.4927 25.8117L55.2206 38.5396C58.8502 34.91 60.8893 29.9872 60.8893 24.8542H42.8893ZM42.4927 25.8117C42.2387 26.0657 41.8943 26.2083 41.5352 26.2083V44.2083C46.6682 44.2083 51.591 42.1692 55.2206 38.5396L42.4927 25.8117ZM41.5352 26.2083C41.176 26.2083 40.8316 26.0657 40.5776 25.8117L27.8497 38.5396C31.4793 42.1692 36.4021 44.2083 41.5352 44.2083V26.2083ZM40.5776 25.8117C40.3237 25.5577 40.181 25.2133 40.181 24.8542H22.181C22.181 29.9872 24.2201 34.91 27.8497 38.5396L40.5776 25.8117ZM40.181 24.8542C40.181 24.495 40.3237 24.1506 40.5776 23.8966L27.8497 11.1687C24.2201 14.7983 22.181 19.7211 22.181 24.8542H40.181ZM40.5776 23.8966C40.8316 23.6427 41.176 23.5 41.5352 23.5V5.5C36.4021 5.5 31.4793 7.5391 27.8497 11.1687L40.5776 23.8966ZM41.5352 8.45833C37.1867 8.45833 33.0164 10.1857 29.9416 13.2606L42.6695 25.9885C42.3686 26.2893 41.9606 26.4583 41.5352 26.4583V8.45833ZM29.9416 13.2606C26.8667 16.3354 25.1393 20.5057 25.1393 24.8542H43.1393C43.1393 25.2796 42.9703 25.6876 42.6695 25.9885L29.9416 13.2606ZM25.1393 24.8542C25.1393 29.2026 26.8667 33.373 29.9416 36.4478L42.6695 23.7198C42.9703 24.0207 43.1393 24.4287 43.1393 24.8542H25.1393ZM29.9416 36.4478C33.0164 39.5226 37.1867 41.25 41.5352 41.25V23.25C41.9606 23.25 42.3686 23.419 42.6695 23.7198L29.9416 36.4478ZM41.5352 41.25C45.8836 41.25 50.0539 39.5226 53.1288 36.4478L40.4008 23.7198C40.7017 23.419 41.1097 23.25 41.5352 23.25V41.25ZM53.1288 36.4478C56.2036 33.373 57.931 29.2026 57.931 24.8542H39.931C39.931 24.4287 40.1 24.0207 40.4008 23.7198L53.1288 36.4478ZM57.931 24.8542C57.931 20.5057 56.2036 16.3354 53.1288 13.2606L40.4008 25.9885C40.1 25.6876 39.931 25.2796 39.931 24.8542H57.931ZM53.1288 13.2606C50.0539 10.1857 45.8836 8.45833 41.5352 8.45833V26.4583C41.1097 26.4583 40.7017 26.2893 40.4008 25.9885L53.1288 13.2606Z" fill="#EC8E00" mask="url(#path-2-inside-1_173_755)"/>
<defs>
<linearGradient id="paint0_linear_173_755" x1="79.3427" y1="0.499997" x2="-0.459065" y2="76.6546" gradientUnits="userSpaceOnUse">
<stop stop-color="#7FFFFF"/>
<stop offset="1" stop-color="#D8FFCA" stop-opacity="0.97"/>
</linearGradient>
</defs>
</svg>
