<svg id="Camada_1" data-name="Camada 1" xmlns="http://www.w3.org/2000/svg" viewBox="0 0 203.79 254.16"><defs><style>.cls-1{fill:#ec8e00;}</style></defs><title>icon</title><path class="cls-1" d="M203.7,253.22H158.45V23.38c-2,.8-3.41,1.26-4.72,1.87-24,11.3-48,22.67-72,33.88-2.85,1.32-4.21,2.79-4,6.08.28,5.24.08,10.51.08,16.6,9-3.17,17.57-5.87,25.86-9.18,4.65-1.86,8.32-1.75,12.6,1.17,7,4.77,14.63,8.68,21.79,13.28,1.53,1,3.11,3.32,3.12,5q.19,79.2,0,158.41a13.64,13.64,0,0,1-.4,2H96.18V92.06c-2,.53-3.42.79-4.76,1.26-23.43,8.2-46.81,16.53-70.3,24.54-4.19,1.43-5.7,3.27-5.67,7.87.21,40.88.12,81.75.12,122.63v5.8H.1v-5.34C.1,204,.16,159.23,0,114.44c0-4.11,1.16-5.92,5.08-7.24,17.73-5.94,35.31-12.33,53-18.34,3.33-1.13,4.41-2.7,4.31-6.19-.26-9.19,0-18.39-.16-27.58,0-2.81.87-4.21,3.4-5.39C100.6,33.3,135.48,16.76,170.46.43a7.13,7.13,0,0,1,5.83.44c7.8,4.86,15.27,10.25,23.07,15.1,3.3,2,4.44,4.34,4.43,8.23q-.18,101.18-.09,202.35Z"/><path class="cls-1" d="M83.59,212.91,24.9,218.56V195.27l58.69-9.47Z"/><path class="cls-1" d="M24.54,151.19c0-7-.09-13.73.1-20.48a4,4,0,0,1,2.22-2.82c18.69-6.62,37.42-13.1,57.07-19.92,0,8.81.08,17-.12,25.23,0,.9-1.45,2.27-2.47,2.57C63.24,141,45.12,146.08,27,151.17A11.21,11.21,0,0,1,24.54,151.19Z"/><path class="cls-1" d="M24.54,185.1c0-7.32-.11-14.1.12-20.87a4.14,4.14,0,0,1,2.55-2.92c18.55-4.89,37.15-9.6,56.71-14.6,0,8.81.06,17-.1,25.27a3.34,3.34,0,0,1-2.16,2.26C62.82,177.9,44,181.43,24.54,185.1Z"/><path class="cls-1" d="M83.74,225.42v26.72H24.82V229.22Z"/></svg>