<svg id="Camada_1" data-name="Camada 1" xmlns="http://www.w3.org/2000/svg" viewBox="0 0 229.69 255.3"><defs><style>.cls-1{fill:#ec8e00;}</style></defs><title>icon</title><path class="cls-1" d="M149.81,0l37,37.05V78.92a26.71,26.71,0,0,0,2.19-1.7c5-5,10.11-10.06,15.12-15.12,1.64-1.65,3.34-2.94,5.72-2.19l19.59,19.67c.84,2.14-.68,3.72-2.31,5.34q-15.28,15.22-30.53,30.5c-2.44,2.43-4.79,5-7.33,7.27a7.09,7.09,0,0,0-2.43,5.84c.11,10.45,0,20.9,0,31.35v93.31l-2.38,2.09H6.1c-.61,0-1.23,0-1.84,0-2.92-.2-4.09-1.43-4.24-4.43,0-.62,0-1.23,0-1.85V6.27C0,.88.85,0,6.12,0H149.81Zm28.8,133.68c-1.36,1.23-2.19,1.91-3,2.67-12.18,12.17-24.44,24.26-36.46,36.58A27.42,27.42,0,0,1,127,180.55c-7,2-14,4.54-20.75,6.77-4.16-1.66-4.78-2.85-3.49-6.77,2.32-7.11,4.75-14.18,7-21.3a17.77,17.77,0,0,1,4.63-7.38q30.71-30.59,61.31-61.27c1-1,2.05-2.1,2.94-3V42.41c-1.43-.09-2.74-.25-4-.25-7.87,0-15.74,0-23.61,0-1.45,0-2.91-.13-4-.18-2.15-1.48-2.26-3.27-2.25-5.18,0-8.24,0-16.48,0-24.72V8.55C140.51,7.93,11.26,8,8.32,8.61c-.05.55-.15,1.15-.15,1.74q0,118,.12,236.08c0,.1.11.21.18.3s.18.16.48.42H176.56A14.56,14.56,0,0,0,178,247c.1,0,.2-.13.29-.2s.18-.17.3-.28Zm17-51.16c-.66.6-1.21,1.06-1.71,1.57Q157,121,120.08,157.87a9.73,9.73,0,0,0-2.46,4c-1.29,4-2.63,7.91-3.92,11.87-.24.74-.35,1.52-.6,2.67,4.84-1.64,9.21-3.18,13.63-4.58a11.74,11.74,0,0,0,4.87-3.11q28-28.08,56.09-56.08l19.14-19.14c-3.32-3.32-6.52-6.53-9.73-9.72C196.68,83.37,196.22,83,195.66,82.52ZM172.5,33.81l-6.59-6.6c-2.16-2.16-4.28-4.37-6.49-6.48-2-1.94-3.75-4.25-6.54-6,0,3.49,0,6.54,0,9.59s.06,6.27.09,9.46Zm39.84,53.06,6.93-6.5c-1.79-1.73-3.64-3.5-5.48-5.29s-3.59-3.51-5.12-5l-6.27,6.47Z"/><rect class="cls-1" x="34.69" y="67" width="108" height="14" rx="5.77"/><rect class="cls-1" x="34.69" y="100" width="108" height="14" rx="5.77"/><rect class="cls-1" x="34.69" y="135" width="58" height="14" rx="4.23"/><rect class="cls-1" x="34.69" y="171" width="58" height="14" rx="4.23"/><rect class="cls-1" x="33.69" y="205" width="110" height="14" rx="5.82"/></svg>