<svg id="Camada_1" data-name="Camada 1" xmlns="http://www.w3.org/2000/svg" viewBox="0 0 2300.37 2730.5"><defs><style>.cls-1{fill:#1da55c;}.cls-2{fill:#fff;}.cls-3{fill:#fb001c;}</style></defs><title>icon</title><path class="cls-1" d="M1054.36,2538.38A251.73,251.73,0,0,1,979,2387.09l-13.74-114.75-32.15,29.49,124.85-536.3-25.09,18.79.1,3.6-16.4,8.6-28.32,21.2-1-5.82-469.8,246.22-22.08,16.52a252.68,252.68,0,0,1-150.5,50.1c-3.66,0-7.37-.08-11-.24l-200.3-8.8L181.41,1921a251.81,251.81,0,0,1,93.32-141l92.51-69.27-15.68-4.94,486.91-250.25L790.4,1435l-3.73,2.3-15.5-10.53-32-13.7,5.29-4.45c-41-27.84-128.32-87.24-214.86-146.17-69.36-47.23-124.63-84.93-164.27-112-23.57-16.12-41.82-28.64-54.25-37.21-6.19-4.28-11.06-7.66-14.52-10.08l-2.46,1.52-28.33-12.12a251.84,251.84,0,0,1-123.94-115L49.31,799.71,241.87,743.9a251.06,251.06,0,0,1,168.74,10.34l106.23,45.48-4.34-19.55,465.06,319.38-5.88-49.1-3.89-2.1,1.4-18.69-4.13-34.56,6.54,2.38,43.76-583.54-3.2-26.8a251.78,251.78,0,0,1,37.58-164.82L1157.51,53.26l144.62,138.86a251.74,251.74,0,0,1,75.42,151.29l13.73,114.74,15.27-14-45.13,538.42,147-230.56,5.59,31.55,331.4-248.13.24,1.33a252.87,252.87,0,0,1,130.31-36.49c3.66,0,7.37.09,11,.25l200.3,8.8L2139.29,704a251.73,251.73,0,0,1-93.31,141L1906,949.76l-.83-.13-338.7,384.27,71.34,30.54,4.73-2.92,15.26,11.48,31.25,13.38-6.36,5.34,327.84,246.68,24.08,10.31a251.8,251.8,0,0,1,123.94,115l92.53,177.87-192.57,55.81a251.32,251.32,0,0,1-69.9,9.92h0a249.76,249.76,0,0,1-98.82-20.26l-106.25-45.48,6.08,27.38-338.21-262.75,5.13,42.86,7,3.75-4.18,19.41,3.85,32.19-10-3.63-111.72,518.19,2.93,24.44a251.72,251.72,0,0,1-37.59,164.81L1199,2677.25Z"/><path class="cls-1" d="M1163.89,106.51l114.69,110.13a217.13,217.13,0,0,1,65.21,130.81l19.07,159.4c-5.46,6.77-45.39,57.3-59.44,76.22,17.94-15.27,58.95-52.27,62-55.05L1316,1117l174.11-273.17c.21,1.23-64.51,248-59.44,271.06.27-23.57,73.27-277.14,73.15-281.32l317.69-237.87c.22,1.22,9.47,49.84,14.54,72.86.26-23.57-.71-79-.83-83.13l10.54-7.89a217.12,217.12,0,0,1,130.13-43.32q4.75,0,9.53.21l158.86,7-38,154.4a217.07,217.07,0,0,1-80.68,121.87l-128.51,96.22q-12.88-2-25.8-3.92c-23.24-3.46-46.52-6.74-69.93-9.45,22.2,7.9,44.54,15.25,66.91,22.41,3.92,1.25,7.83,2.51,11.75,3.74l-370.13,419.94,115,49.23c-1,.8-38.42,33.12-55.83,49,20.55-11.56,68-40.09,71.58-42.28L1993.36,1668c-.95.8-38.42,33.12-55.83,49,20.55-11.55,68-40.08,71.58-42.28l12.11,5.18a217.14,217.14,0,0,1,107.16,99.4l73.38,141.07L2049,1964.69a217.12,217.12,0,0,1-145.88-8.94l-147.59-63.18c-3.12-8.11-26.92-68-36.28-89.59,4.26,23.18,15.79,77.19,16.68,81.2l-328-254.82,14.87,124.2c-1.17-.42-47.9-16.72-70.37-23.84,20.28,12,68.72,38.86,72.4,40.85L1307,2317.32c-1.17-.43-47.9-16.72-70.37-23.84,20.28,12,68.72,38.86,72.41,40.85l1.56,13.07a217.19,217.19,0,0,1-32.5,142.51L1192.61,2624l-114.7-110.13a217.12,217.12,0,0,1-65.2-130.81l-19.08-159.4c5.46-6.77,45.39-57.3,59.45-76.22-17.95,15.27-58.95,52.27-62,55.05l121.07-520-100.14,75c-.21-1.22-9.47-49.83-14.54-72.86-.26,23.57.71,79,.83,83.13l-499.15,261.6c-.22-1.23-9.47-49.84-14.54-72.86-.27,23.57.71,78.94.83,83.12l-10.55,7.9a217.08,217.08,0,0,1-130.12,43.31c-3.17,0-6.36-.07-9.54-.21l-158.85-7,38-154.39a217.19,217.19,0,0,1,80.69-121.88l128.51-96.22c8.59,1.35,72.32,10.66,95.72,13.38-22.19-7.91-74.73-24.92-78.66-26.16l477.63-245.47-115-49.23c.95-.8,38.42-33.12,55.83-49-20.55,11.56-68,40.09-71.58,42.29,0,0-478.67-325.24-477.73-326.06,17.86-15.27,35.6-30.69,53-46.6-20.54,11.56-68,40.09-71.58,42.28l-12.1-5.18A217.16,217.16,0,0,1,172,961.89L98.61,820.82l152.73-44.26a217.05,217.05,0,0,1,145.89,8.93l147.58,63.18c3.13,8.12,26.93,68,36.28,89.59-4.25-23.17-15.79-77.18-16.68-81.2l455.83,313-14.86-124.2c1.17.42,47.9,16.72,70.37,23.84-20.28-12-68.72-38.86-72.41-40.85l46.17-615.72c1.17.43,47.9,16.72,70.38,23.84-20.29-12-68.73-38.86-72.41-40.85l-1.57-13.07a217.15,217.15,0,0,1,32.5-142.5l85.48-134.09m33.24,1264.87,12.07-38.89q-.5-6.32-1-12.65c-7.56-93.43-17.17-186.61-28.25-279.62s69.55-407.48,54.87-500.06q-5.5-34.72-11.45-69.39c-2-11.55-3.95-23.11-6-34.66l-6.28-34.61c-2.19-11.54-4.3-23.08-6.55-34.59s-4.48-23.05-6.86-34.56c-4.68-23-9.55-46-15-69,.12,23.57.82,47.07,1.7,70.55.4,11.74,1,23.47,1.49,35.2s1.2,23.43,1.8,35.16l2.06,35.12c.71,11.71,1.56,23.4,2.33,35.1,1.56,23.4,3.35,46.76,5.24,70.13,7.59,93.43-76.13,408.26-65,501.27s23.83,185.82,38.52,278.4c.22,1.39.45,2.78.67,4.18l25.66,42.88m33-.52,39.71-9,10.46-7.2q115.7-79.89,228-164.28c75-56.14,223-311.69,295.86-370.69q27.3-22.14,54.35-44.61c9-7.52,18.05-15,27-22.55l26.84-22.74c8.9-7.66,17.83-15.26,26.68-23s17.72-15.41,26.5-23.23c17.6-15.56,35.08-31.28,52.22-47.46-20.35,11.89-40.35,24.24-60.24,36.75-10,6.22-19.84,12.58-29.75,18.89s-19.69,12.75-29.54,19.13l-29.38,19.36c-9.79,6.46-19.49,13-29.24,19.56q-29.22,19.57-58.11,39.6c-77.12,53.28-227,306.39-302,362.53s-149,113.54-221.84,172.56l-3.28,2.67-24.31,43.66M1131.09,1401l50-.78-27.63-29.89L1142,1364.9q-127.05-60.24-256.29-115.34c-86.11-36.87-288.53-239.76-376-273.34q-32.82-12.59-65.81-24.77c-11-4-22-8.14-33-12.12l-33.12-11.87c-11.08-3.87-22.13-7.81-33.22-11.63s-22.21-7.64-33.36-11.33c-22.29-7.46-44.63-14.74-67.22-21.5,20.48,11.68,41.17,22.83,61.95,33.8,10.37,5.53,20.81,10.89,31.23,16.32s20.89,10.67,31.34,16l31.45,15.77c10.5,5.24,21.05,10.35,31.57,15.53Q463,996,494.75,1011c84.7,40.15,285.92,245.85,372,282.71s172.83,72.28,260.35,105.84l4,1.51m83-1.29-8.8-4.31q-12.37-6.11-24.82-12.09.88,5.17,1.78,10.36.56,3.25,1.12,6.52l30.72-.48-8.13,5.46q-11.48,7.68-22.88,15.45c3.29,1.21,6.57,2.44,9.86,3.64l6.2,2.29,14.95-26.84q.35,4.88.66,9.77.91,13.77,2,27.53,4-3.35,8.08-6.71l5.09-4.23-15.78-26.36,8.79,4.3q12.39,6.11,24.82,12.09c-.59-3.45-1.17-6.9-1.77-10.36-.37-2.17-.75-4.34-1.12-6.52l-30.72.49c2.7-1.83,5.42-3.65,8.13-5.47q11.48-7.68,22.87-15.45c-3.28-1.21-6.56-2.44-9.85-3.64l-6.21-2.29-14.94,26.85q-.35-4.89-.67-9.78-.92-13.77-1.94-27.53-4,3.35-8.08,6.71l-5.09,4.23,15.78,26.37m842.41,458.5c-20.47-11.68-41.17-22.82-62-33.8-10.37-5.52-20.81-10.89-31.23-16.31s-20.89-10.68-31.34-16l-31.45-15.77c-10.5-5.25-21-10.36-31.56-15.54q-31.57-15.52-63.35-30.52c-84.71-40.15-158.1-187.63-244.21-224.49s-172.83-72.28-260.36-105.84l-4-1.51-50,.78,27.64,29.89,11.46,5.46q127,60.24,256.29,115.34c86.11,36.87,160.7,181.53,248.22,215.12q32.82,12.59,65.81,24.77c11,4,22,8.14,33,12.11l33.12,11.88c11.08,3.87,22.13,7.81,33.23,11.62s22.2,7.65,33.36,11.34c22.28,7.46,44.63,14.74,67.21,21.49m-882.68,608.87c-.12-23.57-.81-47.07-1.7-70.55-.4-11.74-1-23.47-1.48-35.2s-1.21-23.43-1.8-35.16l-2.07-35.12c-.71-11.71-1.55-23.4-2.33-35.1-1.56-23.4-3.35-46.76-5.24-70.13-7.58-93.43,147.84-339.29,136.71-432.3s-23.83-185.81-38.52-278.39c-.23-1.4-.45-2.79-.67-4.19l-25.66-42.88L1219,1467q.49,6.32,1,12.65c7.57,93.43,17.18,186.61,28.26,279.62s-141.25,338.51-126.58,431.1c3.68,23.14,7.45,46.27,11.46,69.38,2,11.55,3.94,23.11,6,34.66l6.27,34.62c2.19,11.53,4.31,23.07,6.55,34.58s4.48,23,6.86,34.56c4.68,23,9.55,46,15,69m-871-478.26c20.36-11.89,40.35-24.24,60.25-36.75,10-6.21,19.83-12.57,29.74-18.88s19.69-12.76,29.55-19.14l29.38-19.35c9.79-6.47,19.49-13,29.24-19.57q29.22-19.58,58.11-39.6c77.12-53.28,334.47-131.92,409.45-188.06s149-113.54,221.84-172.56l3.29-2.67,24.3-43.66-39.71,9c-3.48,2.4-7,4.79-10.45,7.2q-115.69,79.89-228,164.28c-75,56.14-330.51,137.23-403.35,196.23q-27.32,22.13-54.36,44.61c-9,7.51-18,15-27,22.54l-26.85,22.75c-8.89,7.66-17.83,15.26-26.68,23s-17.72,15.41-26.49,23.23c-17.61,15.56-35.09,31.27-52.23,47.45M1151.14,0l-44.59,70L1021.07,204A285.85,285.85,0,0,0,978.4,391.18L980,404.25l1.25,10.44L941.05,950.23l-16.31-5.92L934.87,1029l-332-228L598,797.66l-.08-.21-.58-.25L460.58,703.27l8.69,39.09L424,723a285.11,285.11,0,0,0-191.58-11.74L79.68,755.51,0,778.6l38.29,73.6,73.38,141.07a285.85,285.85,0,0,0,140.72,130.52L264.5,1129l25.18,10.78,2.09,1.44c12.47,8.6,30.76,21.15,54.36,37.3,39.67,27.13,95,64.84,164.33,112.08,65.65,44.71,131.76,89.67,177.75,120.94l-13.2,11.1,79.76,34.15,3.05,2.06-348.22,179-3.32,1.71-.46-.07-1.31,1-142.11,73,31.37,9.87-39.42,29.52a285.91,285.91,0,0,0-105.95,160l-38,154.4-19.84,80.56,82.88,3.64,158.86,7c4.16.18,8.37.27,12.52.27a285.17,285.17,0,0,0,170.88-56.88l10.54-7.89,9.35-7,426.2-223.37,2.56,14.48,39.34-29.45-78.79,338.43L875,2401.16l64.3-59,5.86,48.93a285.79,285.79,0,0,0,85.62,171.78L1145.51,2673l59.84,57.46,44.6-70,85.47-134.08a285.84,285.84,0,0,0,42.68-187.13l-1.57-13.08-.68-5.72L1478.16,1846l25.3,9.18-8.64-72.21,199.43,154.93,149,115.78-12.17-54.78,45.29,19.39A285.15,285.15,0,0,0,2068,2030l152.73-44.26,79.68-23.1-38.28-73.6L2188.7,1748A285.87,285.87,0,0,0,2048,1617.45l-12.11-5.18-8.19-3.51-290.42-218.51,15.93-13.4-78.25-33.49-30.5-23-9.47,5.84-11.94-5.11L1926.4,977l11.45-8.57,128.51-96.22a285.9,285.9,0,0,0,105.95-160l38-154.39,19.84-80.56-82.89-3.64-158.85-7c-4.15-.18-8.36-.28-12.51-.28a284.65,284.65,0,0,0-90,14.57q-7.49,2.49-14.79,5.38l-2-11.09-88.4,66.19-243,181.92-11.19-63.11-87.16,136.75-4.59,3.44.1,3.6-2.18,3.41-26,40.77,26.35-314.39.53-6.32.1-.12,0-.45,14-166.52-30.53,28-5.85-48.92a285.89,285.89,0,0,0-85.63-171.78L1211,57.46,1151.14,0Z"/><path class="cls-2" d="M1163.89,106.51l114.69,110.13a217.13,217.13,0,0,1,65.21,130.81l19.07,159.4c-5.46,6.77-45.39,57.3-59.44,76.22,17.94-15.27,58.95-52.27,62-55.05L1316,1117l174.11-273.17c.21,1.23-64.51,248-59.44,271.06.27-23.57,73.27-277.14,73.15-281.32l317.69-237.87c.21,1.22,9.47,49.84,14.54,72.86.26-23.57-.71-79-.83-83.13l10.54-7.89a217.12,217.12,0,0,1,130.13-43.32q4.75,0,9.53.21l158.86,7-38,154.4a217.1,217.1,0,0,1-80.68,121.87l-128.51,96.22q-12.88-2-25.8-3.92c-23.24-3.46-46.52-6.74-69.93-9.45,22.2,7.9,44.54,15.25,66.91,22.41,3.92,1.25,7.83,2.51,11.75,3.74l-370.13,419.94,115,49.23c-1,.8-38.42,33.12-55.83,49,20.55-11.56,68-40.09,71.58-42.29L1993.36,1668c-.95.8-38.42,33.12-55.83,49,20.55-11.55,68-40.08,71.58-42.28l12.11,5.18a217.14,217.14,0,0,1,107.16,99.4l73.38,141.07L2049,1964.69a217.12,217.12,0,0,1-145.88-8.94l-147.59-63.18c-3.12-8.11-26.92-68-36.28-89.59,4.26,23.18,15.79,77.19,16.68,81.2l-328-254.82,14.87,124.2c-1.17-.42-47.9-16.72-70.37-23.84,20.28,12,68.72,38.86,72.4,40.85L1307,2317.32c-1.17-.42-47.9-16.72-70.37-23.84,20.28,12,68.72,38.86,72.41,40.85l1.56,13.08a217.17,217.17,0,0,1-32.5,142.5L1192.61,2624l-114.7-110.13a217.12,217.12,0,0,1-65.2-130.81l-19.08-159.4c5.46-6.77,45.39-57.3,59.45-76.22-17.95,15.27-58.95,52.27-62,55.05l121.07-520-100.14,75c-.21-1.22-9.47-49.83-14.54-72.86-.26,23.57.71,79,.83,83.13l-499.15,261.6c-.22-1.23-9.47-49.84-14.54-72.86-.27,23.57.71,78.94.83,83.12l-10.55,7.9a217.08,217.08,0,0,1-130.12,43.31c-3.17,0-6.36-.07-9.54-.21l-158.85-7,38-154.39a217.19,217.19,0,0,1,80.69-121.88l128.51-96.22c8.59,1.35,72.32,10.66,95.72,13.38-22.19-7.91-74.73-24.92-78.66-26.16l477.63-245.47-115-49.23c.95-.8,38.42-33.12,55.83-49-20.55,11.56-68,40.09-71.58,42.29,0,0-478.67-325.24-477.73-326.06,17.86-15.27,35.6-30.69,53-46.6-20.54,11.56-68,40.09-71.58,42.28l-12.1-5.18A217.16,217.16,0,0,1,172,961.89L98.61,820.82l152.73-44.27a217.15,217.15,0,0,1,145.89,8.94l147.58,63.18c3.13,8.12,26.93,68,36.28,89.59-4.25-23.17-15.79-77.18-16.68-81.2l455.83,313-14.86-124.2c1.17.42,47.9,16.72,70.37,23.84-20.28-12-68.72-38.86-72.41-40.85l46.17-615.72c1.17.43,47.9,16.72,70.38,23.84-20.29-12-68.73-38.86-72.41-40.85l-1.57-13.07a217.15,217.15,0,0,1,32.5-142.5l85.48-134.09m33.24,1264.87,12.07-38.89q-.5-6.32-1-12.65c-7.56-93.43-17.17-186.61-28.25-279.62s69.55-407.48,54.87-500.06q-5.5-34.72-11.45-69.39c-2-11.55-3.95-23.11-6-34.66l-6.28-34.61c-2.19-11.54-4.3-23.08-6.55-34.59s-4.48-23.05-6.86-34.56c-4.68-23-9.55-46-15-69,.12,23.57.82,47.07,1.7,70.55.4,11.74,1,23.47,1.49,35.2s1.2,23.43,1.8,35.16l2.06,35.12c.71,11.71,1.56,23.4,2.33,35.1,1.56,23.4,3.35,46.77,5.24,70.13,7.59,93.43-76.13,408.26-65,501.27s23.83,185.82,38.52,278.4c.22,1.39.45,2.78.67,4.18l25.66,42.88m33-.52,39.71-9,10.46-7.2q115.7-79.89,228-164.28c75-56.14,223-311.69,295.86-370.69q27.3-22.14,54.35-44.61c9-7.52,18.05-15,27-22.55l26.84-22.74c8.9-7.66,17.83-15.26,26.68-23s17.72-15.41,26.5-23.23c17.6-15.56,35.08-31.28,52.22-47.46-20.35,11.89-40.35,24.24-60.24,36.75-10,6.22-19.84,12.58-29.75,18.89s-19.69,12.76-29.54,19.13l-29.38,19.36c-9.79,6.46-19.5,13-29.24,19.56q-29.22,19.57-58.11,39.6c-77.12,53.29-227,306.39-302,362.53s-149,113.54-221.84,172.56l-3.28,2.67-24.31,43.66M1131.09,1401l50-.78-27.63-29.89L1142,1364.9q-127.05-60.24-256.29-115.34c-86.11-36.87-288.53-239.76-376-273.34q-32.82-12.59-65.81-24.77c-11-4-22-8.14-33-12.12l-33.12-11.87c-11.08-3.87-22.13-7.81-33.22-11.63s-22.21-7.64-33.36-11.33c-22.29-7.46-44.63-14.74-67.22-21.5,20.48,11.68,41.17,22.83,61.95,33.8,10.37,5.53,20.81,10.89,31.23,16.32s20.89,10.67,31.34,16l31.45,15.77c10.5,5.24,21.05,10.35,31.57,15.53Q463,996,494.75,1011c84.7,40.14,285.92,245.85,372,282.71s172.83,72.28,260.35,105.84l4,1.51m83-1.29-8.8-4.31q-12.37-6.11-24.82-12.09.88,5.17,1.78,10.36.56,3.25,1.12,6.52l30.72-.48-8.13,5.46q-11.48,7.68-22.88,15.45c3.29,1.21,6.57,2.44,9.86,3.64l6.2,2.29,14.95-26.84q.35,4.88.66,9.77.91,13.77,2,27.53,4-3.35,8.08-6.71l5.09-4.23-15.78-26.36,8.79,4.3q12.39,6.11,24.82,12.09c-.59-3.45-1.17-6.9-1.77-10.36-.37-2.17-.75-4.34-1.12-6.52l-30.72.49c2.7-1.83,5.42-3.65,8.13-5.47q11.48-7.68,22.87-15.45c-3.28-1.21-6.56-2.44-9.85-3.64l-6.21-2.29-14.94,26.85q-.35-4.89-.67-9.77-.92-13.79-1.94-27.54-4,3.35-8.08,6.71l-5.09,4.23,15.78,26.37m842.41,458.5c-20.47-11.68-41.17-22.82-62-33.79-10.37-5.53-20.81-10.9-31.23-16.32s-20.89-10.68-31.34-16l-31.45-15.77c-10.5-5.24-21-10.36-31.56-15.54q-31.57-15.52-63.35-30.52c-84.71-40.15-158.1-187.63-244.21-224.49s-172.83-72.28-260.36-105.84l-4-1.51-50,.78,27.64,29.89,11.46,5.46q127,60.24,256.29,115.34c86.11,36.87,160.7,181.53,248.22,215.12q32.82,12.59,65.81,24.77c11,4,22,8.14,33,12.11l33.12,11.88c11.08,3.87,22.13,7.81,33.23,11.62s22.2,7.65,33.36,11.34c22.28,7.46,44.63,14.74,67.21,21.49m-882.68,608.87c-.12-23.57-.81-47.07-1.7-70.55-.4-11.74-1-23.47-1.48-35.2s-1.21-23.43-1.8-35.16l-2.07-35.12c-.71-11.71-1.55-23.4-2.33-35.1-1.56-23.4-3.35-46.76-5.24-70.12-7.58-93.44,147.84-339.3,136.71-432.31s-23.83-185.81-38.52-278.39c-.23-1.4-.45-2.79-.67-4.19l-25.66-42.87L1219,1467q.49,6.32,1,12.65c7.57,93.43,17.18,186.61,28.26,279.62s-141.25,338.51-126.58,431.1c3.68,23.14,7.45,46.27,11.46,69.38,2,11.55,3.94,23.11,6,34.66l6.27,34.62c2.19,11.53,4.31,23.07,6.55,34.58s4.48,23,6.86,34.56c4.68,23,9.55,46,15,69m-871-478.26c20.36-11.89,40.35-24.24,60.25-36.74,10-6.22,19.83-12.58,29.74-18.89s19.69-12.76,29.55-19.14l29.38-19.35c9.79-6.47,19.49-13,29.24-19.57q29.22-19.58,58.11-39.59c77.12-53.29,334.47-131.93,409.45-188.07s149-113.54,221.84-172.56l3.29-2.67,24.3-43.66-39.71,9c-3.48,2.4-7,4.79-10.45,7.2q-115.69,79.89-228,164.28c-75,56.14-330.51,137.23-403.35,196.23q-27.32,22.13-54.36,44.61c-9,7.51-18,15-27,22.54l-26.85,22.75c-8.89,7.66-17.83,15.26-26.68,23s-17.72,15.41-26.49,23.23c-17.61,15.56-35.09,31.27-52.23,47.45M1156.2,42.29l-26.89,42.18-85.47,134.09A258.85,258.85,0,0,0,1005.2,388l1.57,13.08,1.56,13-43,573.65-8.56-3.1,5.41,45.17-1.69,22.55,4.69,2.53,3.61,30.13L587.62,823.27l-85.8-58.93,5.23,23.57L413.36,747.8a258,258,0,0,0-173.43-10.62L87.2,781.44,39.15,795.37l23.09,44.37,73.38,141.07A258.79,258.79,0,0,0,263,1099l12.11,5.19,19.55,8.36,1.64-1,10.79,7.47c12.43,8.58,30.69,21.1,54.27,37.23C401,1183.33,456.3,1221,525.66,1268.27c81.48,55.49,163.69,111.38,207.21,141l-6.92,5.82L767.8,1433l18.68,12.7,4.5-2.77,31,13.29L421.94,1661.82l-88.74,45.6,18.91,6-81.58,61.08a258.83,258.83,0,0,0-95.92,144.89l-38,154.4-12,48.57,50,2.19,158.86,7c3.75.17,7.57.25,11.33.25a258.2,258.2,0,0,0,154.7-51.49l10.54-7.9,11.08-8.29,460.82-241.51,1.34,7.61,37-27.7,19.77-10.37-.12-4.35,6.82-5.1-95.57,410.54L921.11,2322.3l38.78-35.57L972,2387.92a258.72,258.72,0,0,0,77.51,155.51l114.7,110.14,36.08,34.64,26.89-42.18,85.47-134.09a258.72,258.72,0,0,0,38.64-169.41l-1.56-13.07-1.23-10.21,109.78-509.19,13.16,4.77-5.06-42.32,5-23.4-8.38-4.52-2.71-22.62,250.48,194.59,89.84,69.8-7.33-33,93.69,40.11a258.22,258.22,0,0,0,173.44,10.62l152.72-44.27,48-13.92-23.09-44.38-73.38-141.06a258.81,258.81,0,0,0-127.4-118.17l-12.11-5.18-11.19-4.79-320.13-240.88,8.33-7-40.93-17.53-18.39-13.84-5.72,3.52-59.1-25.3L1908,957l13.68-10.25,128.51-96.22a258.75,258.75,0,0,0,95.92-144.88l38-154.4,12-48.57-50-2.2-158.86-7c-3.76-.16-7.57-.25-11.33-.25a258.2,258.2,0,0,0-125.17,32.38l-.47-2.64-28.73,21.51-.33.25-8.43,6.31L1797,562.92,1518.88,771.13l-6.75-38-56.57,88.76-84.79,133,35.48-423.43L1415,426.88l-18.41,16.89L1384.5,342.58A258.79,258.79,0,0,0,1307,187.07L1192.28,76.94,1156.2,42.29Z"/><path class="cls-2" d="M1236.48,1597.66c-23.23-3.13-46-7.69-67.92-12.1q-8.07-1.62-16.2-3.23l-21.06-4.14V1317.45c-3.63-.12-7.3-.21-10.88-.31-17-.44-34.52-.91-52.24-3.37-9-1.24-18.28-2.38-27.25-3.49-16.74-2-34.06-4.18-51.34-7.2-41.23-7.22-90-16.91-139-34-35.56-12.42-62.53-26.08-84.89-43-23.57-17.8-48.51-40.95-54.8-77.63-2.82-16.49-3.34-31-1.56-44.3a184.07,184.07,0,0,1,11-44c18.72-47.24,53.87-81.76,107.47-105.53,18.73-8.3,39.63-14.57,63.91-19.15a276.51,276.51,0,0,1,51.13-4.74c9.31,0,18.75.47,28,1.39,35.18,3.5,68.25,17.42,98.29,41.38a261.21,261.21,0,0,1,23.23,20.39c5.38,5.44,9.94,11,14.35,16.36,1.77,2.16,3.44,4.19,5.11,6.16l6.23,7.32v36.72l-14.34,7.25c-.2.1-.8.46-1.24.72a45.74,45.74,0,0,1-14.08,5.9l-7.76,1.6,1.39,15.07c.07.83.16,1.55.23,2.21a59,59,0,0,1,.46,7.39,39.43,39.43,0,0,1-1.13,8.45c-.09.44-.21.94-.32,1.54l-2.38,12.42-11.21,5.83c-22.12,11.51-45.63,13.85-66.37,15.92-2.37.23-4.73.46-7.08.71a137.91,137.91,0,0,1-14.49.75c-22.21,0-42.84-5-60.08-10a173.62,173.62,0,0,1-56-27.41c.63,2.31,2.94,4.94,9.14,9.36,15.56,11.1,34.49,17.09,54.53,23.44l1.87.6c19.22,6.09,40.95,10.78,66.45,14.33,9.22,1.28,18.31,2.88,27.1,4.43,8,1.4,15.52,2.72,23.12,3.83,3.28.47,7.09.66,11.13.85a142.64,142.64,0,0,1,20.59,2.07c9.45,1.82,19.88,2.24,30.93,2.69,3,.12,6.09.24,9.13.39,8.55.43,17.41.67,26,.9,17.36.46,35.31.94,53.35,3,8.29.94,17,1,26.33,1,12.11,0,24.64.06,37.74,2.11,6.45,1,13.54,1.19,21,1.38,10.93.28,23.32.59,36.17,3.63,5.53,1.31,12.33,1.66,19.52,2,4.26.22,8.66.44,13.23.88,23.9,2.27,47,6.46,72.61,11.3a431,431,0,0,1,88.53,26.52c22.61,9.63,55.17,26.37,76.75,60.35,25.88,40.74,21.78,90.57-10.43,126.93-25,28.25-56.89,43.41-78.68,52.35-32.52,13.35-69.25,23.37-115.62,31.56-4.33.76-8.79,1.6-13.11,2.41-15,2.82-30.59,5.74-47,6.89a173.16,173.16,0,0,0-18.58,2.81c-3.92.74-8,1.5-12.17,2.15a42.85,42.85,0,0,1-6.57.47c-1,0-2.11,0-3.22-.07-.53,0-1.07-.05-1.64-.05h-15.87v92.28Zm29.59-225.53,12.13-1.75c2.9-.42,5.79-.86,8.69-1.3,6.61-1,13.45-2,20.45-2.86,34.92-4,67.91-7.85,98.91-19.41a151.93,151.93,0,0,0,15.31-6.53c-2.56-.84-5.27-1.59-8-2.28a358,358,0,0,0-49.21-9.25c-16.67-1.91-33.9-3.21-50.55-4.48-7-.53-14.24-1.08-21.4-1.67-8.67-.71-17.58-1.08-26.35-1.37Z"/><path class="cls-1" d="M942.83,956.82q12.76,0,25.46,1.27c31.53,3.14,59.76,16,84.6,35.82a237.31,237.31,0,0,1,20.95,18.33c6.51,6.58,12.14,14,18.14,21.08v11.06c-3,1.49-5.77,3.72-8.93,4.38-15.6,3.28-31.28,6.18-46.94,9.16-12.78,2.44-25.58,4.8-40.2,7.54,2.65,2.29,4,4.08,5.7,4.83,13.81,5.88,27.71,11.54,41.55,17.33,4.38,1.84,8.68,3.86,12.9,5.75.28,3.05.61,5,.58,6.87a38.07,38.07,0,0,1-1,5.42c-19.84,10.33-42.3,11.53-64.13,13.83a112.9,112.9,0,0,1-11.75.6c-17.9,0-35.59-4-52.92-8.95a145.78,145.78,0,0,1-58.6-32.23c-13.37.44-21.92,8.79-29.5,18.7-4.86,19,3.75,31.05,18.9,41.85,19.46,13.87,41.59,20.66,63.65,27.66,23,7.3,46.76,12,70.75,15.31,16.74,2.33,33.33,5.8,50.06,8.23,10.09,1.47,20.28.75,30.54,2.73,14.27,2.74,29.09,2.79,43.7,3.52,25.91,1.29,52,.84,77.7,3.75,21.08,2.38,42.32-.29,63,2.95,18.4,2.88,37,.29,55.24,4.62,11.72,2.77,24.18,2.34,36.3,3.49,23.63,2.24,46.89,6.55,70.22,11a403.16,403.16,0,0,1,83.16,24.88c25.82,11,49.38,25.83,64.94,50.33,19.84,31.25,16.18,68.41-7.94,95.63-19,21.4-43.13,34.87-69,45.51-35.47,14.56-72.55,23.35-110.23,30-19.08,3.36-38,7.6-57.38,9-11,.78-21.92,3.5-32.9,5.2a16.86,16.86,0,0,1-2.58.17c-1.51,0-3.11-.12-4.86-.12v-87c9.41-1.36,18.88-3,28.4-4.07,35.59-4.11,71.18-8.26,105-20.88,9.07-3.39,18.17-7.26,26.31-12.39,9.47-6,16.18-14.43,13.43-27.77-8.82-10.62-22.09-15.07-35-18.4a388.12,388.12,0,0,0-52.75-9.9c-24.24-2.77-48.51-4.23-72.77-6.23-17.61-1.45-35.11-1.51-52-2.29-.94.85-1.35,1.14-1.66,1.51a2.9,2.9,0,0,0-.69,1.21,17.94,17.94,0,0,0-.21,2.94c0,90.08,0,180.17,0,271.83-27.9-3.75-54.9-9.62-82.56-15.06V1296.34c-7-3.68-13.87-4.58-21.22-4.85-21.5-.78-43.18-.63-64.41-3.57-25.87-3.59-51.87-6-77.68-10.56-45.79-8-91-17.61-134.92-33-27.67-9.67-54.43-21.52-77.77-39.15-20.71-15.65-40.08-33.71-44.8-61.21-2-11.93-3-24.54-1.41-36.44a159.21,159.21,0,0,1,9.4-37.84c17.68-44.62,51.31-72.45,93.79-91.28,18.61-8.26,38.25-13.61,58.16-17.36a249.3,249.3,0,0,1,46.29-4.3m16,76.5c11.48,0,23.21-5.18,32.32-15.65,2-10-4.66-14.85-12.44-18.49a43.56,43.56,0,0,0-18.62-4,57,57,0,0,0-12.93,1.55c-9.51,2.24-20,6.41-20.27,19.52,8.14,11.32,19.9,17,31.94,17m-16-128.71v0a302.72,302.72,0,0,0-56,5.2c-26.28,5-49.06,11.8-69.65,20.93C789.12,943.2,766,958.1,746.53,976.3a203.31,203.31,0,0,0-50.48,74.23,209.69,209.69,0,0,0-12.62,50.18c-2.13,16-1.57,33,1.71,52.15,3.66,21.37,12.84,41.25,27.28,59.08,12.25,15.14,26.48,26.64,37.51,35,24.59,18.58,53.83,33.44,92,46.78,51.1,17.85,103.34,28.14,143.14,35.1,17.94,3.14,35.59,5.31,52.65,7.41,9.28,1.14,18,2.21,26.85,3.43a391.82,391.82,0,0,0,40.6,3.18v256.85l42.14,8.29q8.07,1.59,16.09,3.21c22.38,4.49,45.52,9.14,69.58,12.37l59.17,8v-96.1c1.76-.13,3.48-.33,5.2-.59,4.6-.72,8.86-1.51,13-2.29a152.29,152.29,0,0,1,15.6-2.42c17.88-1.26,34.18-4.32,50-7.28,4.44-.84,8.64-1.62,12.83-2.36,48.26-8.52,86.7-19,121-33.12,24.2-9.93,59.68-26.87,88.31-59.18,19.38-21.89,30.93-48.3,33.38-76.39,2.5-28.55-4.57-56.86-20.45-81.86a164.75,164.75,0,0,0-41.75-44.29c-13.33-9.81-28.64-18.34-46.81-26.08a456.25,456.25,0,0,0-93.91-28.15c-26.23-5-50-9.27-75-11.64-5.13-.49-10-.74-14.35-1-5.71-.29-11.62-.6-14.85-1.36-15.49-3.67-29.92-4-41.52-4.33a146.31,146.31,0,0,1-17.67-1.07c-15.07-2.36-29.23-2.4-41.72-2.43-8.53,0-16.59,0-23.45-.81-19.16-2.17-37.68-2.67-55.59-3.15-8.81-.23-17.14-.46-25.39-.87-3.21-.16-6.35-.29-9.39-.41-4.79-.19-9.45-.38-13.83-.68l6.46-3.36,4.75-24.84c0-.11.1-.46.16-.75a63.91,63.91,0,0,0,1.75-13.81c0-2.28-.06-4.35-.19-6.15,3.09-1.49,5.51-2.91,7.14-3.88l.34-.2,28-14.18v-62.39l-12.44-14.63c-1.53-1.79-3.13-3.74-4.82-5.8-4.56-5.56-9.74-11.86-16-18.17a293.19,293.19,0,0,0-25.51-22.43c-34-27.15-71.72-42.94-112-47-10.16-1-20.46-1.52-30.62-1.52Z"/><path class="cls-2" d="M1237.41,1979.38c-12.38,0-22.75-2.8-31.89-5.28-4.17-1.13-8.1-2.19-11.55-2.77-9.63-1.62-18.92-3.53-28.76-5.56-4.28-.88-8.66-1.78-13.17-2.68l-21-4.18V1711.66c-20-2.72-39.72-6.45-58.9-10.08q-7.44-1.41-14.88-2.8a750.54,750.54,0,0,1-107.31-28.06c-27.81-9.58-49.39-20.12-67.92-33.17-16.13-11.36-38.79-30.14-49.36-62-11.71-35.32-4.47-68.72,21.53-99.26,27.24-32,63.32-48.47,88.09-58.08a591.53,591.53,0,0,1,64.88-20.77c14.64-3.8,29.27-6.13,43.42-8.38,4.32-.69,8.63-1.38,12.94-2.11,11.66-2,23.38-3.61,34.72-5.2l4.76-.67a45,45,0,0,1,6.33-.42c1,0,2.06,0,3.18.07.7,0,1.46,0,2.29,0h24.69l1.37,24.65c1.44,25.84,2.73,79.74-2.71,98.8l-4.55,15.92-16.35,2.67q-3.71.62-7.48,1.28c-6,1-12.19,2.11-18.67,2.93-27.14,3.46-51.63,7-74.39,14.62,6.37,1.89,12.69,3.64,18.91,5.21,24.4,6.18,43.13,10.52,60.75,14,10.27,2.06,20.61,3.67,31.56,5.38,8.23,1.29,16.73,2.62,25.22,4.16,11.29,2,22.57,4.34,33.49,6.57,6.84,1.39,13.91,2.84,20.81,4.18l1.32.26c16.24,3.16,33,6.43,49.49,9.33a941.67,941.67,0,0,1,94.34,21.63c21.36,6.08,42.44,13.27,62.83,20.22l1.83.63c31,10.56,58.51,25.88,81.87,45.54,28.34,23.83,40.55,56,35.32,93a41.4,41.4,0,0,1-3.52,11.44c-.1.24-.21.48-.31.73-7.62,20.85-22,38.64-44.1,54.37-17.83,12.71-38.17,23.2-64,33a612.59,612.59,0,0,1-115.21,31.09c-4.13.7-8.42,1.52-13,2.39l-7.28,1.38-20.85,3.89V1978l-24.79,1.25C1240.07,1979.35,1238.73,1979.38,1237.41,1979.38Zm28.76-190.79c9.18-7.91,19.77-9.47,25.74-10.35,1.13-.16,2.67-.39,3.21-.53,20.09-5.35,42.73-11.38,62.23-21.46-25.3-9.93-52.32-15.79-73.06-19.79-6.19-1.2-12.24-2.58-18.12-3.94Z"/><path class="cls-1" d="M1109.31,1406.73c1.61,0,3.36.11,5.48.11,2.13,38.4,1.37,79.22-1.76,90.18-8.19,1.34-16.68,3-25.24,4.07-28.8,3.67-57.52,7.66-85,17.73-12,4.39-23.81,8.87-31.76,20v7.62c3.51,6.49,9.63,10.85,16.55,13.22,13.69,4.68,27.58,8.87,41.61,12.42,20.56,5.21,41.22,10.17,62,14.34,19,3.8,38.22,6.17,57.27,9.62,18,3.27,36,7.19,54,10.7,17.07,3.32,34.14,6.65,51.27,9.67a914.74,914.74,0,0,1,91.71,21c21.34,6.07,42.37,13.28,63.39,20.45,26.9,9.18,51.78,22.54,73.49,40.81,21.29,17.91,30.21,41.48,26.27,69.39-.33,2.33-1.65,4.51-2.47,6.77-6.61,18.16-19.49,31.27-34.77,42.17-17.89,12.76-37.63,22.08-58.13,29.85a584,584,0,0,1-110.29,29.76c-6.57,1.11-13.11,2.43-20.7,3.84v-71.21c5-5.36,12.88-4.59,19.6-6.38,24.36-6.49,48.63-13.13,70.89-25.3,9.26-5.06,19.06-9.93,24.26-20.6-6.13-13.06-17.31-20-29.61-24.9-25.22-10-51.53-16.18-78.13-21.32-12.31-2.37-24.44-5.64-36.73-8.1a20.89,20.89,0,0,0-4.23-.36c-2.48,0-5.17.24-8.21.24v250.61c-.9,0-1.78.06-2.66.06-14.12,0-26.35-5.54-39.11-7.69-13.32-2.24-26.51-5.18-41.17-8.09V1690.66c-2.94-1.39-4.6-2.76-6.38-2.94-29.89-3-59.24-9.13-88.74-14.61A720.47,720.47,0,0,1,958.43,1646c-21.65-7.46-42.65-16.64-61.39-29.84-17.62-12.41-32.42-27.22-39.61-48.91-9.47-28.55-1.85-52.4,16.63-74.12,20.86-24.5,48.36-39.3,77.65-50.66a564.47,564.47,0,0,1,62-19.84c17.72-4.61,36-7,54.15-10,12.88-2.18,25.83-4,38.77-5.77a19.5,19.5,0,0,1,2.68-.16m0-52.22a69.61,69.61,0,0,0-10,.68l-4.67.65c-11.54,1.62-23.47,3.29-35.52,5.33-4.14.7-8.29,1.36-12.69,2.06-14.76,2.35-30,4.78-45.88,8.9a618.13,618.13,0,0,0-67.75,21.7c-27.41,10.63-67.45,29-98.53,65.5-40.25,47.29-36.59,93.75-26.43,124.39a135.22,135.22,0,0,0,25.75,45.42A177.27,177.27,0,0,0,867,1658.89c20.59,14.51,44.25,26.11,74.44,36.52a778.22,778.22,0,0,0,111.05,29c4.94.91,9.86,1.85,14.79,2.78,12.34,2.34,24.88,4.71,37.65,6.85v246.26l42,8.36c4.4.87,8.76,1.77,13,2.64,10.08,2.08,19.61,4,29.71,5.74,2.2.36,5.53,1.27,9.06,2.22,9.64,2.61,22.86,6.19,38.71,6.19,1.76,0,3.54,0,5.29-.14l49.58-2.5v-71.08c2.39-.44,4.67-.88,6.89-1.3,4.6-.88,8.57-1.64,12.43-2.29a638.17,638.17,0,0,0,120.13-32.43c28-10.62,50.24-22.12,69.94-36.17,26.21-18.69,43.6-40.24,53.16-65.85a67.24,67.24,0,0,0,5.46-18.29c6.46-45.72-9.29-87.15-44.36-116.65-25.85-21.75-56.22-38.66-90.25-50.27l-1.83-.62c-20.7-7.07-42.1-14.37-64.12-20.63a971.05,971.05,0,0,0-97-22.24c-16.2-2.85-32.86-6.09-49-9.23l-1.38-.27c-6.78-1.32-13.79-2.75-20.56-4.13-11.06-2.25-22.5-4.59-34.08-6.68q-3.11-.57-6.2-1.09l2.55-.42,9.1-31.86c2-6.86,4.28-18.53,4.85-48.13.35-18.35-.06-39.41-1.17-59.28l-2.75-49.31h-49.38l-1.46,0c-1.09,0-2.44-.08-4-.08Z"/><path class="cls-3" d="M1223.42,1187.81c-9.5,0-18-.15-26-.47-9.93-.38-19.86-1.21-29.46-2-4.22-.35-8.49-.71-12.84-1l-24.14-1.82V1026.89c-27.56-18.31-47.08-42.44-56.84-70.49a130.63,130.63,0,0,1,.66-86.69c19.9-55.63,64.84-87.63,123.29-87.81h.46c61.92,0,109.14,36.42,126.32,97.42a127.23,127.23,0,0,1-3.48,80.8c-10.19,26.33-28.74,48.56-55.24,66.26v160.93l-25.73.36C1234.1,1187.76,1228.53,1187.81,1223.42,1187.81Z"/><path class="cls-1" d="M1198.57,808c43.79,0,85.44,22.45,101.19,78.38,10.89,38.7,1.81,91-59.69,125.37v149.81c-5.66.08-11.2.13-16.67.13-8.44,0-16.7-.12-24.94-.44-13.53-.53-27-1.93-41.36-3V1012.18c-63.69-34.84-72.52-92.24-57.7-133.67,17.32-48.41,54.85-70.37,98.78-70.5h.39m0-52.22H1198c-32.85.1-63.47,9.14-88.54,26.15a147.9,147.9,0,0,0-35.33,33.85,171.62,171.62,0,0,0-23.93,45.13A156.83,156.83,0,0,0,1049.5,965c10.22,29.36,29.14,55,55.39,75.3v166.41l48.3,3.63c4.21.32,8.49.67,12.63,1,9.88.83,20.09,1.68,30.6,2.09,8.32.33,17.15.48,27,.48,5.24,0,10.93,0,17.41-.13l51.47-.73V1039.7a181.62,181.62,0,0,0,23.36-21.61,157,157,0,0,0,30.11-48.54,150.73,150.73,0,0,0,10.12-50.73,156.63,156.63,0,0,0-5.85-46.58c-10.62-37.68-31.44-68.35-60.23-88.67-25.74-18.17-57.28-27.78-91.22-27.78Z"/><path class="cls-2" d="M1198.82,2179.6c-17,0-33.08-5.71-45.16-16.09-13.07-11.22-21-27.47-22.35-45.75-1.12-15.43-.89-30.62-.65-45.31.06-4.11.13-8.32.16-12.48-2.23-.43-4.46-.88-6.71-1.34-47.08-9.75-92.94-20.44-136.5-44a148,148,0,0,1-31.45-22.83,82.12,82.12,0,0,1-26.07-59.68,85.39,85.39,0,0,1,25.83-61.6,154.06,154.06,0,0,1,41.93-28.71c28.89-13.62,60.46-23.27,96.53-29.49,2.73-.47,5.67-1.14,9.08-1.91,1.87-.43,3.81-.86,5.85-1.31l31.62-6.82v118.16l-12.78,7.58a105.44,105.44,0,0,1-18.66,8.28c6.66,3.41,15.14,6,25.73,9.1l1,.28c21.53,6.28,43.81,10,67.4,13.92l6.22,1c46,7.71,80,18.46,110.11,34.86,23,12.53,49,28.94,67.41,55.71a140.26,140.26,0,0,1,22.47,52.09c4.34,21.71-7,38.17-10.67,43.58l-3.75,5.45-5.88,3c-7.27,3.72-15.29,7.16-24.63,7.16-17.13,0-27.74-11.39-32.83-16.87-4-4.3-7.6-8.61-11.07-12.78-2.28-2.74-4.43-5.31-6.6-7.78-12.63-14.35-28.74-24.43-48.34-33.18,0,6.59,0,13.1.07,19.66a64.28,64.28,0,0,1-6.94,30.42c-12,23.43-33.52,37.13-59,37.57Z"/><path class="cls-1" d="M1114.82,1834.67v71c-13,7.71-30.32,8.12-40.33,23.19v10.67c12.83,19.43,34,25.34,54.37,31.3,25,7.3,50.86,11.33,76.63,15.65,35.3,5.91,70.11,14.7,101.93,32,22.37,12.18,43.52,26,58.39,47.59a113.42,113.42,0,0,1,18.38,42.39c1.72,8.62-1.55,16.34-6.6,23.69-5.45,2.79-9.33,4.3-12.73,4.3-4.54,0-8.25-2.68-13.72-8.55-6-6.44-11.37-13.42-17.18-20-22.69-25.79-52.91-39.13-84.23-50.54a13.43,13.43,0,0,0-4.64-.57h-2.61c-.8,0-1.64,0-2.54-.06,0,18.87-.08,37,0,55.06a38.13,38.13,0,0,1-4.06,18.32c-7.66,14.93-20.79,23.12-36.21,23.39h-.89c-21.55,0-39.7-13.56-41.47-37.64-1.5-20.56-.37-41.32-.4-62,0-4.84,0-9.68,0-15.58-9.77-1.84-18.69-3.38-27.55-5.21-44.58-9.23-88.85-19.47-129.38-41.35a122.71,122.71,0,0,1-26-18.87c-24.24-22.8-23.41-60.73.07-83.55a128.25,128.25,0,0,1,34.86-23.82c28.48-13.42,58.74-22,89.84-27.37,5.06-.88,10-2.14,16-3.43M1167,1770l-63.23,13.65c-2.13.46-4.15.91-6.09,1.35-3.06.7-5.71,1.3-7.77,1.65-38.41,6.63-72.18,17-103.22,31.6a180.08,180.08,0,0,0-49,33.61A111.62,111.62,0,0,0,904,1932.38a108.57,108.57,0,0,0,34.28,78.48,173.73,173.73,0,0,0,37,26.79c41.91,22.62,86.43,34.3,129.21,43.51-.15,12.42-.12,25.2.86,38.51,3.65,49.85,43,86,93.54,86l1.79,0c34.89-.6,65.45-20,81.77-51.76a88,88,0,0,0,6.72-17.35,77.28,77.28,0,0,1,5.66,5.79c1.94,2.2,4,4.65,6.15,7.24,3.52,4.24,7.52,9,12,13.85,6.41,6.89,23.45,25.2,51.95,25.2,14.91,0,26.83-5.07,36.52-10l11.77-6,7.49-10.9c14.1-20.54,19.06-41.9,14.75-63.48a166.18,166.18,0,0,0-26.56-61.77c-21.55-31.3-50.73-49.83-76.43-63.83-32.77-17.86-69.25-29.48-118.29-37.69l-6.23-1c-14.12-2.35-27.75-4.62-40.85-7.4V1770Z"/><polygon class="cls-3" points="1239.68 1561.01 1157.68 1544.01 1157.68 1296.01 1239.68 1296.01 1239.68 1561.01"/><polygon class="cls-3" points="1239.68 1960.01 1157.68 1930.01 1156.68 1691.01 1239.68 1703.01 1239.68 1960.01"/><path class="cls-3" d="M1198.18,2153h0a41.5,41.5,0,0,1-41.5-41.5V2038l83,19v54.5A41.5,41.5,0,0,1,1198.18,2153Z"/></svg>