<svg id="Camada_1" data-name="Camada 1" xmlns="http://www.w3.org/2000/svg" viewBox="0 0 253.74 254.01"><defs><style>.cls-1{fill:#ec8e00;}</style></defs><title>icon</title><path class="cls-1" d="M2.07,45c1.05,1,2.13,1.91,3.15,2.92Q21.56,64.24,37.87,80.56c5.79,5.77,9.85,5.78,15.62,0Q67,67.15,80.42,53.65c5.74-5.76,5.7-9.81-.12-15.64Q64,21.68,47.66,5.36c-1-1-1.93-2.1-3-3.28,19.56-6.24,44.91,2,58.57,19,12.25,15.26,16.36,32.54,11.55,51.6-.81,3.22.19,4.82,2.28,6.81q63.12,60.12,126.17,120.33c16.76,16,13,41.93-7.58,51.37a30.74,30.74,0,0,1-35.32-7.07Q150.15,191.63,100.1,139C93,131.56,85.84,124.14,78.81,116.6c-1.73-1.86-3.21-2.26-5.81-1.62C38.18,123.59,5,101.09.34,65.43-.52,58.82.51,52,.67,45.22ZM222.34,208.51a14.27,14.27,0,0,0-14.22,14.15,14.35,14.35,0,1,0,28.69-.26A14.29,14.29,0,0,0,222.34,208.51Z"/><path class="cls-1" d="M78.35,131.47l10.12,10.79c-1.25,1.35-2.29,2.55-3.42,3.68L27.68,203.32c-.85.85-1.72,1.67-2.5,2.57-2.18,2.57-2.22,5.29.23,7.56,2.28,2.12,4.87,2,7.22-.19.76-.72,1.49-1.46,2.23-2.2q28.85-28.86,57.69-57.71c1-1,1.93-2.22,3.16-3.65L106.35,161c-1.3,1.4-2.37,2.6-3.5,3.73q-28.51,28.54-57,57.07a24.09,24.09,0,0,0-2.48,2.58c-1.82,2.47-2.17,5.58.4,7.11,1.8,1.08,4.81.36,7.23.06.81-.1,1.48-1.38,2.22-2.12l60.67-60.74,10.35,11c-.92,1.05-1.72,2.06-2.63,3Q90.2,214,58.79,245.41c-11.43,11.4-27.13,11.46-38.64.18-3.31-3.24-6.64-6.47-9.81-9.84C.55,225.37-.4,210.32,9.51,200.13,32,177,55.15,154.53,78.35,131.47Z"/><path class="cls-1" d="M163.29,109,147.9,94.29c15-14.92,29.61-29.83,44.61-44.38,6.31-6.11,11.61-12.68,15.16-20.75a14.47,14.47,0,0,1,4.49-5.27c8-6,16.1-11.83,24-17.61l14.32,14.27c-6.34,8.69-12.6,17.76-19.45,26.34-1.89,2.36-5.68,3.11-8.39,4.91-3.94,2.61-8.1,5.07-11.44,8.34C196.08,75,181.16,90.05,166.19,105.08A34.45,34.45,0,0,0,163.29,109Z"/></svg>