<svg id="Camada_1" data-name="Camada 1" xmlns="http://www.w3.org/2000/svg" viewBox="0 0 232.15 264.25"><defs><style>.cls-1{fill:#ec8e00;}</style></defs><title>icon</title><path class="cls-1" d="M40.35,264.25c-4-1-5.56-3.24-6-6.41a3.69,3.69,0,0,1,0-1c.48-3.26.92-6.52,1.46-9.77.7-4.25,1.55-8.49,2.23-12.75.5-3.16.76-6.37,1.23-9.53s1.11-6.1,1.59-9.16c.51-3.24.93-6.5,1.41-9.85-2.65-2.39-5.35-4.55-7.72-7C27.08,191,20.3,182.72,15,173.3a117.28,117.28,0,0,1-9.84-22.16,152.49,152.49,0,0,1-4-16.36C-.55,126.34.26,117.86,0,109.4c-.14-5.05.85-10,1.64-14.9A102,102,0,0,1,5.84,78.18,111.57,111.57,0,0,1,17,54.75,127.75,127.75,0,0,1,28.67,39,110.84,110.84,0,0,1,49.26,20.7,117.69,117.69,0,0,1,75.48,6.9,121.78,121.78,0,0,1,95.8,1.36,60.91,60.91,0,0,1,110.52.06c2.77.16,5.56.07,8.35,0a84.66,84.66,0,0,1,18.36,1.64,134.27,134.27,0,0,1,17.13,4.46,116.33,116.33,0,0,1,66.93,60.44,129.48,129.48,0,0,1,7.79,22C230,92.23,230.25,96,231,99.72c1.49,7.84,1.27,15.77,1,23.65a102.2,102.2,0,0,1-1.41,11.76,116.48,116.48,0,0,1-6,22.24,75.72,75.72,0,0,1-6.16,13.31c-2,3.32-3.8,6.76-5.93,10a87.73,87.73,0,0,1-10.19,13c-1.4,1.43-2.56,3.09-4,4.46a123.82,123.82,0,0,1-25.81,19.47,119.37,119.37,0,0,1-20.17,8.77,107,107,0,0,1-16.08,4c-3,.5-6,.77-9,1.2-6.5.92-13,.52-19.47.37a64.34,64.34,0,0,1-12.86-1.78,4.94,4.94,0,0,0-4.41.9c-6.88,4.66-13.82,9.24-20.71,13.88q-10,6.72-20,13.48c-1.57,1.06-3.12,2.13-4.72,3.13S41.76,263.43,40.35,264.25Zm8.1-19a6,6,0,0,0,1.28-.51c5.17-3.47,10.33-7,15.5-10.46q12-8.07,24-16.1a9.07,9.07,0,0,1,1.73,0A82.09,82.09,0,0,0,102.11,220c3.29.21,6.55.86,9.85,1A89.29,89.29,0,0,0,130.14,220c2.79-.46,5.63-.68,8.37-1.32a108,108,0,0,0,16.37-5.06,95.82,95.82,0,0,0,16.12-8.2,140.35,140.35,0,0,0,13.91-10.3A106.31,106.31,0,0,0,196.66,183a89.46,89.46,0,0,0,8.94-12.75,105.46,105.46,0,0,0,8.14-17.06,101.7,101.7,0,0,0,4.44-15.36,67.51,67.51,0,0,0,1.73-12.28c.13-7,.7-13.94-.44-20.88-.65-4-.92-8.07-1.86-12A100.11,100.11,0,0,0,209.4,70c-2.47-4.76-5.48-9.26-8.41-13.77a83.13,83.13,0,0,0-10.92-13.12A107.67,107.67,0,0,0,176.8,31.89a97.42,97.42,0,0,0-24.41-12.95,110.5,110.5,0,0,0-23.75-5.75c-4.15-.52-8.33-.24-12.46-.93-1.71-.29-3.56.44-5.35.42a61.55,61.55,0,0,0-12.71,1.24c-4,.8-8.05,1.74-12,2.78a98,98,0,0,0-21.34,8.88,82.13,82.13,0,0,0-14.53,9.88C46.09,39,42.16,42.8,38.38,46.71a85.87,85.87,0,0,0-6.81,8.38A90.71,90.71,0,0,0,19.78,75.68c-1.59,4-3,8.1-4.19,12.22a67.12,67.12,0,0,0-3,14.6c-.19,2.62-.95,5.21-1,7.82-.2,8.36-.25,16.73,1.65,25,.91,3.92,1.66,7.88,2.76,11.75a100,100,0,0,0,9.93,23A106.38,106.38,0,0,0,38.49,187.2a94,94,0,0,0,12.79,11.85,6.41,6.41,0,0,1,2.5,7.28,35.82,35.82,0,0,0-.78,5.3c-.41,3.18-.77,6.37-1.22,9.54-.51,3.53-1.12,7.05-1.66,10.57-.26,1.68-.31,3.4-.71,5a32.7,32.7,0,0,0-1.06,8.41l-.41.34.18.18Z"/><path class="cls-1" d="M122.06,131c0,5.71,0,11.36,0,17a24,24,0,0,1-.53,4.78c-.54,2.47-2.57,4.92-7,4.37a5.47,5.47,0,0,1-4.5-5.68c0-9.21,0-18.41,0-27.71l1.53-3a12,12,0,0,1,5.66-1.61c7.89-.37,13.78-4,17.65-11a20.15,20.15,0,0,0,2.7-9.12c.16-5.79-1.29-11.21-5.37-15.65-2.89-3.14-6.19-5.59-10.46-6.46a23.57,23.57,0,0,0-9.19-.56A22.24,22.24,0,0,0,100,83a19.11,19.11,0,0,0-5.48,13.3,12,12,0,0,1-1.56,5.79l-3,1.6c-.58,0-1.25,0-1.92,0a5.3,5.3,0,0,1-5.59-5.49c-.19-7.77,2.35-14.56,7-20.78a31,31,0,0,1,20.77-12.63c8.46-1.27,16.88-.18,24.22,5s12.47,11.85,14.24,20.77c2,10.08.19,19.48-6.23,27.56-4.55,5.73-10.29,10.09-17.56,12C123.88,130.37,123,130.71,122.06,131Z"/><path class="cls-1" d="M120,169.72l2.08,4.2c-1.69,5.2-3.61,6.84-7.16,6.28-1.62-.26-2.66-1.39-3.67-2.5-1.23-1.36-1.32-2-1.2-5.62C113.69,167.61,115.06,167.24,120,169.72Z"/></svg>