<svg id="Camada_1" data-name="Camada 1" xmlns="http://www.w3.org/2000/svg" viewBox="0 0 218.21 254.98"><defs><style>.cls-1{fill:#ec8e00;}</style></defs><title>icon</title><path class="cls-1" d="M172.89,235.33c.53,8.14-.86,14-7.13,17.73a12.78,12.78,0,0,1-13.92-.28c-6.51-4.23-5.73-10.55-4.46-17.14l7.08-7.42c-5.17-14.44-10.82-18.57-25.45-18.7-4.86,0-9.71,0-15.23,0-.24,3.74-.5,6.77-.61,9.81-.09,2.78,0,5.57,0,8.73l7.36,5.87c2.06,7.79,2.61,14-3.75,18.31-4.77,3.24-10,3.13-14.91.27-6.22-3.66-6.14-9.61-4.6-18.27l7.25-5.37v-19c-8.07,0-15.81-.89-23.25.22-9.6,1.44-14.82,8.58-17.73,17.88l7.16,7.54c1.26,6.3,2.47,12.81-4,17-4.69,3-10.1,2.86-15,.08-6.32-3.6-6.17-9.57-4.85-18.38l8.52-7.38c4.57-20,19.17-26.86,38.68-25.62,2.85-7.81,3.11-27.13.47-37.24H47.57c-7.33-3-9.91-7.4-11.2-12.45l-12.19-3.3A15.69,15.69,0,0,1,18.51,135c.17-8.34,0-16.68,0-25.47a78.33,78.33,0,0,1-7.93-.94C4.16,107.1,0,102,0,96c0-6.69,4.42-12,11.47-12.67,8.65-.8,17.36-1.07,26.05-1.11,2.47,0,4.95,1.56,7.41,2.4-.4,8.32-.74,15.55-1.13,23.86H27.59c-1.76,10.68-.29,20.4-1.07,31.07l8.66,3.39c2.79-10.1,8.18-15.76,18.89-15.07.22-3.46.56-6.48.57-9.5q.06-48.42,0-96.83c0-2.1-.08-4.21,0-6.31.49-9.38,5-14.15,14.24-14.72C74.84.13,80.77,0,86.68,0q30.94,0,61.88.14c8.73,0,14.29,5.43,14.89,14.35.17,2.44.06,4.91.06,7.36v105.7c10,.14,17,3.75,18.5,13.26,4,2.39,6.53,1.19,9-2V109.37l-15.88-.89c-3.91-7.48-1.72-15.64-1.91-24.5,3.74-.7,6.72-1.72,9.7-1.72,7,0,14,.56,21,.85,8.69.37,13.86,4.72,14.32,12.12.44,7.11-4.46,12.25-13,13.6-1.35.21-2.73.27-4.53.44-1.92,5.5-.72,11.11-1,16.58-.16,3.15.05,6.32,0,9.47-.3,9.16-3,12.52-11.73,14.82a33.31,33.31,0,0,1-4.51.63l-9.18,12.81H124.28c-2.79,7.37-3.27,23.36-1.23,37.54,8.64.59,17.81-.43,25.93,5,7.89,5.25,11.71,12.71,14.34,22.22ZM63.23,127.16c17.68,2,84.84,1.26,91.67-.86,1.7-28.32.95-107.37-1.1-115.23-5.06-4.71-11.32-2.57-17-2.65-21.37-.34-42.74-.19-64.11-.28-3.67,0-7,.5-9.45,4.72ZM172,138.22c-1.49-.71-2.73-1.79-4-1.8-39.92-.09-79.84-.07-119.27-.07-7,6.29-4.17,12.3-1.68,18.45H171.25C174.61,149,172.73,143.67,172,138.22Zm-59.26,62.59c2-13.31,1.64-34.7-.89-36.9a22.43,22.43,0,0,0-3.63-.23,11.42,11.42,0,0,0-2.75.85c-1.91,12.8-1.57,34.3,1.09,36.61Zm68.93-100.23c8,0,15.51.13,23-.07,3.1-.08,5-2,5.06-5.24-2-4.88-6.11-5.19-10.42-5-5.73.22-11.46.48-17.68.75ZM7.34,96c6.52,5.25,13,5.88,29.29,3.57l-1.42-9C25.81,91.92,15.61,86.05,7.34,96ZM113.39,238l-8.12-.52v7.95H113C113.17,242.79,113.26,240.86,113.39,238Zm-49.57,7.43-2.21-8.26c-6.91,1.79-8.87,4.5-5.69,8.26Zm91.79,1.25,8.24-2.23c-1.83-6.84-1.83-6.84-8.24-6.16Z"/></svg>