<svg id="Camada_1" data-name="Camada 1" xmlns="http://www.w3.org/2000/svg" viewBox="0 0 296.36 256.01"><defs><style>.cls-1{fill:#ec8e00;}</style></defs><title>icon</title><path class="cls-1" d="M60.53,48c0-9.15-.11-17.06,0-25C60.81,7.6,67.87.23,83.2.11,111.5-.1,139.79.05,168.09.05q51.72,0,103.45,0c7.2,0,14.18.34,19.23,6.65a24.26,24.26,0,0,1,5.58,15.84c-.1,63.23.17,126.47-.17,189.71-.13,23.9-19.57,44-43.83,43.79-72-.48-144.12,0-216.18-.27-21.2-.07-35.84-14.8-36-36C-.11,171.06,0,122.42.13,73.77c0-15.27,8.2-23.92,23.39-24.71,10.14-.52,20.33-.07,30.5-.14A58.64,58.64,0,0,0,60.53,48ZM283.4,18.53c-5.95-7.58-12.35-6.84-18.49-6.84q-77.6,0-155.18,0c-7.52,0-15,.11-22.55,0-5.09-.1-9.73.5-13.75,7V31.4q0,90.87.07,181.75c0,8.08-.87,15.82-4.43,23.16-1,2.13-1.76,4.42-3.15,8H77.75q82.23,0,164.46-.06c4.38,0,8.76-.67,13.14-1,15-1.07,27.76-14.39,28.08-33.12,0-1.32,0-2.65,0-4q0-88.21,0-176.44ZM60,61.89c-13,0-24.4-.26-35.83.09-7.89.24-10.67,3.5-11.21,11.61-.12,1.76,0,3.53,0,5.3Q13,146.44,13,214a59.85,59.85,0,0,0,.16,7.93C14.81,234.44,25.8,244.39,37.33,244c11.17-.39,21.37-10,23-21.93a58.16,58.16,0,0,0,.18-7.93q0-70.86,0-141.71C60.52,69.4,60.25,66.39,60,61.89Z"/><path class="cls-1" d="M248,40V71H112V40H248m2.23-11H109.77A8.76,8.76,0,0,0,101,37.77V73.24A8.77,8.77,0,0,0,109.77,82H250.23A8.77,8.77,0,0,0,259,73.24V37.77A8.77,8.77,0,0,0,250.23,29Z"/><rect class="cls-1" x="100" y="100.01" width="159" height="14" rx="7"/><rect class="cls-1" x="100" y="135.01" width="159" height="14" rx="7"/><rect class="cls-1" x="100" y="170.01" width="159" height="14" rx="7"/><rect class="cls-1" x="100" y="205.01" width="159" height="14" rx="7"/></svg>