<svg id="Camada_1" data-name="Camada 1" xmlns="http://www.w3.org/2000/svg" viewBox="0 0 339.05 259"><defs><style>.cls-1{fill:#ec8e00;}</style></defs><title>icon</title><path class="cls-1" d="M56.47,167.92,37,166.06c-1.86-3.05-3.33-5.46-4.92-8.09H6.18L0,151.15V133.39q0-22.06,0-44.14c0-11,4.06-14.9,15.28-14.94,5.51,0,11,0,16.32,0l6.87-8.12H47.2q29.55,0,59.11,0c8.31,0,16.55.47,24.67-2.83,6.92-2.82,14.44-4.14,21.65-6.3,30.61-9.16,58.05-24.45,83.5-43.5,2.72-2,4.93-4.74,7.53-6.94S249,2.46,252.27,0l5.3,1c1.7,3.81,2.48,7.09,1.47,10.87-.58,2.21-.14,4.7-.14,7.06v210c-2.36,3.9-5.24,4-8.4,2.34A21.83,21.83,0,0,1,246,228c-24-22.52-52.33-37.86-83.21-48.65-11.77-4.11-23.74-7.64-35.65-11.36a16.37,16.37,0,0,0-4.62-.7c-5.76-.08-11.52,0-18,0,.29,2.05.44,3.71.75,5.34q3.43,17.58,6.92,35.13c1.31,6.61,2.69,13.21,4,19.82,1.8,8.91.73,17.15-5.64,24.15-9.13,10-24.08,9.78-33.57-1.31-5-5.89-6.19-13-7.62-20.18C66.63,216.5,64,202.73,61.25,189,59.81,181.92,58.06,174.9,56.47,167.92Zm190.69,46.24c1.32-17.12.81-188.61-.64-194.85-34.5,28-73.75,45.78-116.78,56v82.16C172.25,168.46,212.71,184.36,247.16,214.16Zm-131-58.46c1.13-10,.83-72-.33-77.8-13.41-1.2-65.52-.73-71.08.63V155.7ZM98.41,247.23c7.09-4.37,8.24-10.78,6.6-18.39-2.55-11.9-4.86-23.86-7.3-35.78-1.74-8.57-3.52-17.13-5.22-25.35H68.42c.54,3.48.87,6.56,1.5,9.57,4,19.27,8.2,38.5,12.17,57.78C84.13,244.93,87.92,247.91,98.41,247.23ZM11.89,85.7c-1.19,12-.83,55.14.42,60.58H32.46c1.18-11.75.83-54.88-.49-60.58Z"/><path class="cls-1" d="M334.55,110.55c5.57,5.17,5.57,5.17,2.15,10.89H284.77c-3.36-1.62-3-4.75-2.37-8,2.29-2.65,5.3-3,8.55-3C305.39,110.59,319.83,110.55,334.55,110.55Z"/><path class="cls-1" d="M279.93,180.36c-1.89-5.72.23-8.1,5.12-9.45,2.5,1.07,5.62,2.26,8.61,3.72,10.27,5,20.49,10.21,30.76,15.27,2.88,1.42,5.79,2.7,6,7.35-.57,1-1.58,2.74-2.7,4.66-1.77,0-3.55.53-4.78-.08C308.5,194.75,294.15,187.49,279.93,180.36Z"/><path class="cls-1" d="M327.39,31.84c1,1.1,2.26,2.41,3.53,3.78-.2.85-.39,1.57-.53,2.3-.52,2.72-2.85,3.65-4.89,4.68-11.88,6-23.77,11.91-35.74,17.68-2.23,1.08-4.85,1.33-7.69,2.06-1.31-2.45-2.37-4.4-3.17-5.89,1.16-4.21,4.13-5.43,6.93-6.82C329,28.3,320.57,31.23,327.39,31.84Z"/></svg>